<?xml version="1.0" encoding="UTF-8" standalone="no"?>
<!-- Created with Inkscape (http://www.inkscape.org/) -->

<svg
   version="1.1"
   id="svg1"
   width="1920.0615"
   height="430"
   viewBox="0 0 1920.0615 430"
   xmlns="http://www.w3.org/2000/svg"
   xmlns:svg="http://www.w3.org/2000/svg">
  <defs
     id="defs1" />
  <g
     id="g1"
     transform="translate(673.25098,141.18642)">
    <path
       style="fill:#000000;stroke-width:3.4654"
       d="m 386.96916,280.52267 c -27.8118,-9.48031 -57.67834,-31.31651 -72.70447,-53.15617 -42.27207,-61.44021 -34.02981,-147.898558 18.86895,-197.927896 34.30607,-32.4451852 69.38524,-44.371024 122.36533,-41.599741 28.56393,1.494282 35.7169,3.2508947 57.92615,14.2272131 C 615.68779,52.607254 625.96261,199.0046 531.72193,262.76282 492.88246,289.03959 433.37365,296.3405 386.96916,280.52267 Z m 77.00965,-65.25112 c 45.43532,-15.21243 65.74151,-72.21762 41.94871,-117.762372 -24.86649,-47.59974 -90.58942,-52.79334 -121.85741,-9.62897 -30.18775,41.672862 -17.56104,102.989362 25.3198,122.954932 19.58458,9.11886 36.498,10.49324 54.5889,4.43641 z m 266.06528,65.43721 C 632.03576,246.50558 598.51796,122.47879 664.70051,38.916482 c 44.07068,-55.643635 148.48242,-69.661191 208.95814,-28.052786 13.39118,9.213467 37.00794,36.889568 37.00794,43.369179 0,1.986022 -57.81665,36.762731 -61.11848,36.762731 -1.0967,0 -4.95352,-3.762389 -8.57067,-8.360979 C 823.733,60.711793 779.44435,52.32621 752.86672,65.951136 724.62098,80.43167 711.62824,103.01917 711.49735,137.87108 c -0.1199,31.97284 10.79754,54.54648 33.01965,68.27225 30.72711,18.97932 65.62888,15.88922 91.67198,-8.11667 l 14.99473,-13.82176 31.58008,15.86081 31.58008,15.86045 -10.45516,15.1958 c -26.53417,38.56612 -58.76111,54.42242 -114.51123,56.34226 -31.16164,1.07289 -39.68185,0.10396 -59.33339,-6.75546 z M -669.55733,137.77855 V -6.0356903 h 39.85215 39.85213 V 137.77855 281.59278 h -39.85213 -39.85215 z M -448.162,272.06293 c -2.02639,-5.24143 -12.04709,-31.3619 -22.2682,-58.04551 -10.22114,-26.68361 -33.46783,-86.72171 -51.65929,-133.418024 -18.19146,-46.696313 -33.08646,-85.6821004 -33.09997,-86.6350863 -0.0139,-0.9529859 18.87411,-0.9529859 41.97248,0 l 41.99701,1.7327017 33.383,96.1185086 c 31.32797,90.20133 33.64595,95.53458 37.65435,86.63508 2.34923,-5.21613 18.24503,-49.0306 35.32399,-97.366048 17.07902,-48.335448 31.53093,-88.1657544 32.1154,-88.5112552 0.58451,-0.3465403 19.12355,0.2148551 41.19789,1.2475452 l 40.1352,1.8761694 -56.90626,142.9478886 -56.90627,142.94788 h -39.62751 -39.62747 z M -215.58948,80.421621 V -120.74955 l 111.75925,1.05729 c 107.1474329,1.01364 112.5706851,1.38478 131.422826,8.99203 23.807355,9.60679 46.032996,30.346887 55.876405,52.141501 10.405636,23.039734 10.070012,62.1426518 -0.725101,84.476483 -8.383053,17.343307 -31.486273,40.820029 -40.170816,40.820029 -2.853483,0 -5.188125,1.559431 -5.188125,3.465403 0,1.905972 2.813561,3.465403 6.25235,3.465403 9.54684,0 36.162696,18.207576 48.506428,33.182621 16.126813,19.56463 22.659333,42.34862 20.735763,72.32193 -3.30458,51.49277 -31.376873,82.42531 -88.245839,97.23783 -15.6360383,4.07289 -43.470019,5.18181 -130.058321,5.18181 H -215.58948 Z M -2.7402528,208.47312 C 27.805267,199.99259 41.035519,170.26047 27.086231,141.44529 21.588161,130.08778 15.784962,124.19937 4.8939268,118.9271 -8.3394089,112.52096 -16.323282,111.78803 -72.869342,111.78803 h -63.015868 v 50.24834 50.24835 l 59.778211,-0.0347 c 32.878014,0 65.89305,-1.7171 73.3667462,-3.79219 z M -11.315185,35.643062 C 7.5201133,26.034192 16.009139,4.3272518 9.1881852,-16.785371 0.62111913,-43.302291 -6.1797695,-45.72738 -75.482256,-46.977698 L -135.88521,-48.06722 V -2.7938055 42.47996 h 55.584518 c 48.490626,0 57.294795,-0.872589 68.985507,-6.836898 z M 158.67407,70.203186 V -141.18642 h 39.85214 39.85214 V 70.203186 281.59278 h -39.85214 -39.85214 z m 797.0357,0.866351 -0.007,-210.523257 38.1265,1.08259 38.12633,1.08225 v 122.805923 c 0,67.542793 0.8073,122.805577 1.794,122.805577 0.9867,0 12.2727,-11.305876 25.0801,-25.124172 12.8074,-13.818295 37.1581,-39.467131 54.1127,-56.997571 l 30.8266,-31.873393 46.3285,-1.047938 c 25.4807,-0.5762965 46.3258,-0.266836 46.3224,0.6847637 0,0.9529859 -22.5674,26.3880063 -50.1422,56.5228103 l -50.1359,54.79011 15.1269,23.18146 c 31.3839,48.09425 95.5419,149.77647 95.5419,151.42115 0,0.94189 -20.0654,1.71294 -44.5897,1.71294 h -44.5898 l -8.7635,-13.24269 c -4.82,-7.28358 -21.5908,-34.18378 -37.2685,-59.7782 -15.6777,-25.59443 -29.1278,-47.2182 -29.8891,-48.05232 -0.7612,-0.83413 -11.6808,9.76515 -24.2657,23.55434 l -22.8816,25.07081 0.6219,36.22386 0.6219,36.2242 H 995.76172 955.71684 Z M -653.0531,-53.045272 c -21.11699,-11.45801 -27.12933,-47.911978 -11.05315,-67.017438 31.17772,-37.05278 92.90496,-3.02911 77.75998,42.860804 -6.11792,18.537482 -21.54573,29.609446 -41.02576,29.442413 -8.90713,-0.07624 -20.46359,-2.454891 -25.68107,-5.285779 z"
       id="path1" />
  </g>
</svg>
